<?xml version="1.0" encoding="utf-8"?>
<!-- Generator: Adobe Illustrator 18.0.0, SVG Export Plug-In . SVG Version: 6.00 Build 0)  -->
<!DOCTYPE svg PUBLIC "-//W3C//DTD SVG 1.1//EN" "http://www.w3.org/Graphics/SVG/1.1/DTD/svg11.dtd">
<svg version="1.1" id="Layer_1" xmlns="http://www.w3.org/2000/svg" xmlns:xlink="http://www.w3.org/1999/xlink" x="0px" y="0px"
	 viewBox="0 0 83 83" enable-background="new 0 0 83 83" xml:space="preserve">
<rect fill="#42AFFA" width="83" height="83"/>
<path opacity="0.15" fill="#231F20" enable-background="new    " d="M62.5,62c0,1.1-0.8,2-1.8,2H22.3c-1,0-1.8-0.9-1.8-2V51
	c0-1.1,0.8-2,1.8-2h38.4c1,0,1.8,0.9,1.8,2V62z"/>
<g>
	<path fill="#FFFFFF" d="M22.5,29l-0.6,1.2c-0.9-0.6-1.8-0.8-2.5-0.8c-0.8,0-1.4,0.3-1.4,0.9c0,1.8,4.5,0.9,4.5,3.9
		c0,1.5-1.3,2.4-3.2,2.4c-1.3,0-2.6-0.5-3.4-1.3l0.6-1.2c0.9,0.8,1.9,1.2,2.8,1.2c1,0,1.6-0.4,1.6-1c0-1.9-4.5-0.8-4.5-3.8
		c0-1.4,1.2-2.3,3.1-2.3C20.6,28.2,21.7,28.5,22.5,29z"/>
	<path fill="#FFFFFF" d="M32.9,37.6c-0.6,0.6-1.5,0.9-2.3,0.9c-1.1,0-2-0.7-2.7-1.8c-2.5,0-4.4-1.9-4.4-4.3c0-2.4,1.9-4.2,4.4-4.2
		c2.5,0,4.4,1.8,4.4,4.2c0,1.9-1.2,3.5-3,4c0.5,0.5,0.9,0.8,1.4,0.8c0.4,0,1-0.3,1.5-0.7L32.9,37.6z M28,35.4c1.6,0,3-1.3,3-3
		s-1.3-3-3-3c-1.7,0-3,1.3-3,3S26.3,35.4,28,35.4z"/>
	<path fill="#FFFFFF" d="M41.3,33.2c0,2.2-1.4,3.5-3.6,3.5c-2.3,0-3.7-1.3-3.7-3.5v-4.9h1.4v4.9c0,1.4,0.9,2.3,2.3,2.3
		c1.4,0,2.2-0.8,2.2-2.3v-4.9h1.4V33.2z"/>
	<path fill="#FFFFFF" d="M44.2,34.7l-0.8,1.9H42l3.7-8.4h1.5l3.7,8.4h-1.5l-0.8-1.9H44.2z M46.3,29.8l-1.6,3.7h3.2L46.3,29.8z"/>
	<path fill="#FFFFFF" d="M55.7,34.1c-0.1,0-0.3,0-0.4,0h-2v2.5h-1.4v-8.4h3.4c2.1,0,3.4,1,3.4,2.9c0,1.3-0.6,2.3-1.7,2.7l1.9,2.8
		h-1.6L55.7,34.1z M55.3,32.8c1.3,0,2-0.6,2-1.7c0-1.1-0.7-1.6-2-1.6h-2v3.3H55.3z"/>
	<path fill="#FFFFFF" d="M62,29.5v2.3h4.1v1.3H62v2.3h4.7v1.3h-6.1v-8.4h6v1.3H62z"/>
</g>
<g opacity="0.8">
	<path fill="#FFFFFF" d="M30,54.3l-0.5,1.1c-0.6-0.3-1.3-0.6-1.8-0.6c-0.4,0-0.6,0.1-0.6,0.4c0,1,3,0.4,3,2.4c0,1.1-1,1.7-2.2,1.7
		c-0.9,0-1.9-0.4-2.6-0.9l0.6-1.1c0.6,0.5,1.4,0.8,2,0.8c0.4,0,0.7-0.2,0.7-0.5c0-1-3-0.4-3-2.4c0-1,0.9-1.7,2.2-1.7
		C28.6,53.7,29.4,53.9,30,54.3z"/>
	<path fill="#FFFFFF" d="M33.2,53.8c1.4,0,2.3,0.7,2.3,2c0,1.3-0.8,2.1-2.3,2.1h-1v1.6h-1.4v-5.6H33.2z M32.2,56.7h0.9
		c0.6,0,1-0.3,1-0.9c0-0.6-0.4-0.9-1-0.9h-0.9V56.7z"/>
	<path fill="#FFFFFF" d="M41.9,56.6c0,1.6-1.3,2.9-3,2.9c-1.7,0-3-1.2-3-2.9c0-1.6,1.3-2.8,3-2.8C40.6,53.7,41.9,54.9,41.9,56.6z
		 M37.3,56.6c0,0.9,0.7,1.7,1.6,1.7c0.9,0,1.6-0.7,1.6-1.7s-0.7-1.7-1.6-1.7C38,54.9,37.3,55.6,37.3,56.6z"/>
	<path fill="#FFFFFF" d="M45.2,57.8L45.2,57.8h-1.1v1.6h-1.4v-5.6h2.5c1.5,0,2.3,0.7,2.3,2c0,0.9-0.4,1.5-1,1.8l1.2,1.8H46
		L45.2,57.8z M45.2,56.7c0.6,0,1-0.3,1-0.9c0-0.6-0.4-0.9-1-0.9h-1.1v1.8H45.2z"/>
	<path fill="#FFFFFF" d="M51,54.9v4.5h-1.4v-4.5h-1.7v-1.2h4.8v1.2H51z"/>
	<path fill="#FFFFFF" d="M57.7,54.3l-0.5,1.1c-0.6-0.3-1.3-0.6-1.8-0.6c-0.4,0-0.6,0.1-0.6,0.4c0,1,3,0.4,3,2.4c0,1.1-1,1.7-2.2,1.7
		c-0.9,0-1.9-0.4-2.6-0.9l0.6-1.1c0.6,0.5,1.4,0.8,2,0.8c0.4,0,0.7-0.2,0.7-0.5c0-1-3-0.4-3-2.4c0-1,0.9-1.7,2.2-1.7
		C56.3,53.7,57.1,53.9,57.7,54.3z"/>
</g>
</svg>
