<?xml version="1.0" encoding="utf-8"?>
<!-- Generator: Adobe Illustrator 18.0.0, SVG Export Plug-In . SVG Version: 6.00 Build 0)  -->
<!DOCTYPE svg PUBLIC "-//W3C//DTD SVG 1.1//EN" "http://www.w3.org/Graphics/SVG/1.1/DTD/svg11.dtd">
<svg version="1.1" id="Layer_1" xmlns="http://www.w3.org/2000/svg" xmlns:xlink="http://www.w3.org/1999/xlink" x="0px" y="0px"
	 viewBox="0 0 83 83" enable-background="new 0 0 83 83" xml:space="preserve">
<rect fill="#00D0BD" width="83" height="83"/>
<path opacity="0.15" fill="#231F20" enable-background="new    " d="M65,62c0,1.1-0.9,2-2,2H20c-1.1,0-2-0.9-2-2V51c0-1.1,0.9-2,2-2
	h43c1.1,0,2,0.9,2,2V62z"/>
<g>
	<path fill="#FFFFFF" d="M22.5,29.1l-0.6,1.2c-0.9-0.6-1.8-0.8-2.5-0.8c-0.8,0-1.4,0.3-1.4,0.9c0,1.8,4.5,0.9,4.5,3.9
		c0,1.5-1.3,2.4-3.2,2.4c-1.3,0-2.6-0.5-3.4-1.3l0.6-1.2c0.9,0.8,1.9,1.2,2.8,1.2c1,0,1.6-0.4,1.6-1c0-1.9-4.5-0.8-4.5-3.8
		c0-1.4,1.2-2.3,3.1-2.3C20.6,28.3,21.7,28.6,22.5,29.1z"/>
	<path fill="#FFFFFF" d="M32.9,37.7c-0.6,0.6-1.5,0.9-2.3,0.9c-1.1,0-2-0.7-2.7-1.8c-2.5,0-4.4-1.9-4.4-4.3c0-2.4,1.9-4.2,4.4-4.2
		c2.5,0,4.4,1.8,4.4,4.2c0,1.9-1.2,3.5-3,4c0.5,0.5,0.9,0.8,1.4,0.8c0.4,0,1-0.3,1.5-0.7L32.9,37.7z M28,35.5c1.6,0,3-1.3,3-3
		s-1.3-3-3-3c-1.7,0-3,1.3-3,3S26.3,35.5,28,35.5z"/>
	<path fill="#FFFFFF" d="M41.3,33.3c0,2.2-1.4,3.5-3.6,3.5c-2.3,0-3.7-1.3-3.7-3.5v-4.9h1.4v4.9c0,1.4,0.9,2.3,2.3,2.3
		c1.4,0,2.2-0.8,2.2-2.3v-4.9h1.4V33.3z"/>
	<path fill="#FFFFFF" d="M44.2,34.8l-0.8,1.9H42l3.7-8.4h1.5l3.7,8.4h-1.5l-0.8-1.9H44.2z M46.3,29.9l-1.6,3.7h3.2L46.3,29.9z"/>
	<path fill="#FFFFFF" d="M55.7,34.2c-0.1,0-0.3,0-0.4,0h-2v2.5h-1.4v-8.4h3.4c2.1,0,3.4,1,3.4,2.9c0,1.3-0.6,2.3-1.7,2.7l1.9,2.8
		h-1.6L55.7,34.2z M55.3,32.9c1.3,0,2-0.6,2-1.7c0-1.1-0.7-1.6-2-1.6h-2v3.3H55.3z"/>
	<path fill="#FFFFFF" d="M62,29.6v2.3h4.1v1.3H62v2.3h4.7v1.3h-6.1v-8.4h6v1.3H62z"/>
</g>
<g opacity="0.8">
	<path fill="#FFFFFF" d="M33.7,54.8l-0.8,1C32.5,55.3,32,55,31.5,55c-0.9,0-1.6,0.7-1.6,1.6c0,0.9,0.7,1.6,1.6,1.6
		c0.5,0,1-0.3,1.4-0.7l0.8,0.9c-0.6,0.6-1.5,1-2.3,1c-1.7,0-2.9-1.2-2.9-2.9c0-1.6,1.3-2.8,3-2.8C32.3,53.8,33.1,54.2,33.7,54.8z"/>
	<path fill="#FFFFFF" d="M38.2,58.3v1.2h-3.8v-5.6h1.4v4.4H38.2z"/>
	<path fill="#FFFFFF" d="M40.1,58.4l-0.4,1h-1.5l2.4-5.6h1.5l2.4,5.6H43l-0.4-1H40.1z M41.4,55.3l-0.8,2.1h1.6L41.4,55.3z"/>
	<path fill="#FFFFFF" d="M49.4,54.4l-0.5,1.1c-0.6-0.3-1.3-0.6-1.8-0.6c-0.4,0-0.6,0.1-0.6,0.4c0,1,3,0.4,3,2.4c0,1.1-1,1.7-2.2,1.7
		c-0.9,0-1.9-0.4-2.6-0.9l0.6-1.1c0.6,0.5,1.4,0.8,2,0.8c0.4,0,0.7-0.2,0.7-0.5c0-1-3-0.4-3-2.4c0-1,0.9-1.7,2.2-1.7
		C48,53.8,48.8,54,49.4,54.4z"/>
	<path fill="#FFFFFF" d="M54.5,54.4L54,55.5c-0.6-0.3-1.3-0.6-1.8-0.6c-0.4,0-0.6,0.1-0.6,0.4c0,1,3,0.4,3,2.4c0,1.1-1,1.7-2.2,1.7
		c-0.9,0-1.9-0.4-2.6-0.9l0.6-1.1c0.6,0.5,1.4,0.8,2,0.8c0.4,0,0.7-0.2,0.7-0.5c0-1-3-0.4-3-2.4c0-1,0.9-1.7,2.2-1.7
		C53.1,53.8,53.9,54,54.5,54.4z"/>
</g>
</svg>
